<?xml version="1.0" standalone="no"?>
<!DOCTYPE svg PUBLIC "-//W3C//DTD SVG 20010904//EN"
 "http://www.w3.org/TR/2001/REC-SVG-20010904/DTD/svg10.dtd">
<svg version="1.0" xmlns="http://www.w3.org/2000/svg"
 width="313.000000pt" height="303.000000pt" viewBox="0 0 313.000000 303.000000"
 preserveAspectRatio="xMidYMid meet">

<g transform="translate(0.000000,303.000000) scale(0.100000,-0.100000)"
fill="#000000" stroke="none">
<path d="M0 1515 l0 -1515 1565 0 1565 0 0 1515 0 1515 -1565 0 -1565 0 0
-1515z m1655 784 c33 -9 93 -64 364 -332 213 -212 330 -336 342 -362 24 -52
24 -118 -1 -169 -12 -27 -134 -155 -342 -362 -293 -291 -327 -322 -370 -334
-50 -13 -105 -8 -148 15 -14 8 -172 161 -352 342 -274 275 -328 334 -337 368
-31 113 -19 130 322 472 284 286 361 355 402 366 35 9 79 7 120 -4z"/>
<path d="M1534 2224 c-17 -8 -170 -155 -341 -327 -326 -327 -333 -337 -318
-406 4 -21 100 -123 331 -355 344 -344 351 -349 421 -331 31 7 644 610 669
657 17 32 18 81 3 111 -16 31 -618 635 -651 653 -35 18 -75 18 -114 -2z m90
-248 c18 -8 62 -41 97 -74 l64 -61 -112 -113 -113 -113 -61 60 c-73 72 -89
100 -89 157 0 56 35 109 92 137 50 25 76 26 122 7z m-267 -398 c57 -57 103
-108 103 -114 0 -16 -100 -108 -138 -128 -68 -35 -154 -6 -197 67 -44 77 -33
120 57 213 34 35 64 64 67 64 3 0 52 -46 108 -102z m335 -215 c61 -64 88 -108
88 -148 0 -65 -57 -135 -125 -154 -57 -16 -101 3 -177 77 l-69 66 108 108 c59
59 110 108 113 108 3 0 31 -26 62 -57z"/>
</g>
</svg>
